<?xml version="1.0" standalone="no"?>
<!DOCTYPE svg PUBLIC "-//W3C//DTD SVG 20010904//EN"
 "http://www.w3.org/TR/2001/REC-SVG-20010904/DTD/svg10.dtd">
<svg version="1.0" xmlns="http://www.w3.org/2000/svg"
 width="300.000000pt" height="188.000000pt" viewBox="0 0 300.000000 188.000000"
 preserveAspectRatio="xMidYMid meet">

<g transform="translate(0.000000,188.000000) scale(0.100000,-0.100000)"
fill="#000000" stroke="none">
<path d="M0 940 l0 -940 1500 0 1500 0 0 940 0 940 -1500 0 -1500 0 0 -940z
m1647 479 c56 -21 56 -47 -1 -131 -40 -59 -76 -128 -76 -148 0 -10 101 12 188
41 35 12 116 48 179 81 104 53 219 95 231 84 2 -3 -5 -11 -17 -18 -12 -7 -21
-16 -21 -19 0 -4 26 -17 58 -29 182 -73 424 -213 566 -328 62 -51 176 -170
184 -193 2 -5 -9 -9 -25 -9 -15 -1 -50 -7 -76 -14 -82 -21 -97 -14 -225 108
-64 61 -155 141 -202 177 -165 127 -201 145 -67 33 126 -106 224 -202 289
-282 32 -40 58 -77 58 -82 0 -5 -15 -4 -32 1 -18 5 -47 6 -65 3 -72 -14 -121
24 -265 206 -42 52 -91 109 -109 125 -18 17 0 -8 40 -54 69 -81 153 -200 167
-236 6 -15 4 -16 -14 -6 -11 6 -46 11 -76 11 l-55 0 -42 63 c-58 84 -156 214
-170 223 -6 4 13 -26 44 -67 70 -94 105 -162 75 -143 -7 4 -38 8 -70 8 -52 1
-61 4 -84 31 l-26 30 22 -38 c12 -21 21 -40 19 -41 -2 -2 -29 -7 -60 -10 -54
-7 -58 -6 -93 27 -39 37 -43 36 -21 -3 21 -37 19 -40 -35 -33 -57 7 -63 0 -19
-22 22 -12 28 -21 24 -35 -7 -23 1 -28 67 -40 72 -14 84 -27 64 -74 -17 -41
-31 -48 -22 -11 9 35 -9 31 -24 -5 -16 -39 -27 -38 -23 2 l4 33 -17 -35 -17
-35 -6 35 c-5 26 -13 37 -34 44 -25 9 -31 7 -47 -14 l-19 -25 -30 29 c-37 36
-38 32 -7 -42 42 -100 42 -192 2 -192 -9 0 -22 -12 -30 -27 l-14 -28 -10 25
c-5 14 -20 53 -32 87 -12 35 -24 63 -25 63 -2 0 -1 -36 2 -79 6 -76 5 -80 -21
-102 -15 -13 -41 -39 -60 -57 l-33 -32 -12 22 c-6 13 -28 33 -47 46 -47 31
-56 59 -44 139 6 36 9 67 7 69 -1 2 -18 -38 -37 -88 -33 -89 -33 -90 -47 -64
-7 14 -20 26 -28 26 -43 0 -44 97 -1 194 14 32 26 61 26 63 0 3 -14 -7 -31
-21 -37 -31 -45 -32 -52 -6 -6 24 -34 26 -66 4 -17 -12 -21 -23 -17 -43 5 -23
4 -24 -7 -8 -34 51 -34 51 -29 16 4 -32 3 -33 -12 -14 -8 11 -16 25 -16 32 0
6 -5 15 -12 19 -8 5 -9 -2 -5 -25 8 -38 -5 -33 -23 9 -18 43 -8 58 47 66 75
11 95 21 88 43 -5 15 1 24 24 36 44 22 38 28 -19 23 -55 -6 -57 -2 -35 45 16
31 16 32 -2 11 -37 -42 -69 -56 -110 -48 -21 5 -44 7 -50 6 -18 -4 -16 16 5
46 37 53 35 56 -6 13 -39 -41 -44 -43 -84 -38 -23 3 -50 1 -60 -4 -32 -17 -21
13 33 92 28 41 58 83 67 95 10 11 0 3 -20 -19 -20 -21 -69 -86 -108 -143 l-71
-104 -55 0 c-30 0 -64 -5 -76 -11 -11 -6 -21 -9 -23 -7 -7 7 122 190 184 260
36 40 48 57 27 38 -21 -19 -72 -78 -113 -130 -141 -177 -184 -210 -256 -196
-18 3 -47 2 -65 -3 -17 -5 -32 -6 -32 -1 0 34 186 231 340 360 98 82 105 90
45 50 -85 -56 -185 -140 -298 -248 -133 -127 -156 -139 -238 -117 -34 8 -69
15 -80 15 -10 0 -19 4 -19 9 0 5 32 43 72 86 137 147 369 300 615 407 l122 52
-21 23 -22 23 35 -6 c37 -7 98 -35 229 -106 98 -54 179 -82 268 -96 l62 -9 20
41 c10 23 29 56 41 75 l23 34 -27 -5 c-29 -6 -34 1 -15 20 16 16 1 27 -55 42
-41 12 -57 7 -57 -16 0 -24 -24 -10 -35 20 -12 34 1 43 67 52 26 4 56 13 65
20 22 16 121 18 160 3z"/>
<path d="M1505 1070 c-9 -28 -3 -33 19 -17 16 12 16 15 3 26 -13 10 -16 8 -22
-9z"/>
<path d="M1440 996 c5 -5 10 -54 10 -108 0 -80 3 -98 15 -98 8 0 15 9 15 20 0
41 52 15 80 -40 22 -43 40 -50 61 -23 12 14 12 16 -2 11 -21 -8 -33 1 -53 39
-10 20 -29 36 -51 44 -35 13 -35 13 -35 75 0 66 8 78 47 63 35 -13 55 -51 43
-83 -12 -34 -12 -36 0 -36 5 0 17 11 25 24 14 21 14 28 1 59 -8 20 -23 40 -33
45 -26 14 -136 21 -123 8z"/>
<path d="M1651 968 c-1 -11 -9 -18 -21 -18 -11 0 -20 -4 -20 -10 0 -5 7 -10
16 -10 9 0 18 -9 21 -20 9 -34 19 -22 15 18 -4 44 -10 64 -11 40z"/>
<path d="M1490 940 c0 -16 5 -30 10 -30 6 0 10 14 10 30 0 17 -4 30 -10 30 -5
0 -10 -13 -10 -30z"/>
<path d="M1408 943 c-49 -56 -50 -103 -4 -149 26 -26 42 -34 70 -34 20 0 36 5
36 10 0 6 -12 10 -26 10 -39 0 -61 16 -74 54 -12 38 -5 79 16 97 16 13 19 29
6 29 -5 0 -16 -8 -24 -17z"/>
<path d="M1520 904 c0 -49 26 -83 64 -84 13 0 16 -5 12 -16 -5 -14 -4 -15 8
-5 15 13 27 81 14 81 -5 0 -11 -7 -14 -15 -4 -8 -18 -15 -31 -15 -25 0 -26 2
-20 50 5 45 4 50 -13 50 -17 0 -20 -7 -20 -46z"/>
<path d="M1520 765 c0 -28 4 -35 20 -35 23 0 23 -2 9 39 -15 41 -29 40 -29 -4z"/>
<path d="M1447 743 c-14 -13 -6 -20 22 -20 20 0 28 4 24 14 -5 14 -35 18 -46
6z"/>
</g>
</svg>
